# xmcd CD database file
#
# Track frame offsets:
#	150
#	23492
#	46771
#	69741
#	89870
#	116952
#	138790
#	158989
#	182103
#	210252
#	216134
#	233987
#	255964
#	272176
#	301310
#	306113
#	337471
#
# Disc length: 4784 seconds
#
# Revision: 0
# Processed by: cddbd v1.5.1PL2 Copyright (c) Steve Scherf et al.
# Submitted via: Feurio! 1.68 - http://www.feurio.com
#
DISCID=f912ae11
DTITLE=Lucinda Williams - Bowery Ballroom May 27th 2003
DYEAR=1900
DGENRE=
TTITLE0=Car Wheels On A Gravel Road
TTITLE1=Fruits Of My Labor
TTITLE2=Those Three Days
TTITLE3=Blue
TTITLE4=Still I Long For Your Kiss
TTITLE5=Ventura
TTITLE6=Something About What Happens When We Talk
TTITLE7=Real Live Bleeding Fingers
TTITLE8=Joy
TTITLE9=Band Intro
TTITLE10=Overtime
TTITLE11=Concrete And Barbed Wire
TTITLE12=I Envy The Wind
TTITLE13=Cold Cold Heart [Hank Williams]
TTITLE14=Atonement Intro
TTITLE15=Atonement
TTITLE16=Words Fell
EXTD=
EXTT0=
EXTT1=
EXTT2=
EXTT3=
EXTT4=
EXTT5=
EXTT6=
EXTT7=
EXTT8=
EXTT9=
EXTT10=
EXTT11=
EXTT12=
EXTT13=
EXTT14=
EXTT15=
EXTT16=
PLAYORDER=
